<?xml version="1.0" standalone="no"?><!DOCTYPE svg PUBLIC "-//W3C//DTD SVG 1.1//EN" 	"http://www.w3.org/Graphics/SVG/1.1/DTD/svg11.dtd"><svg width="1728" height="897" version="1.1"	xmlns="http://www.w3.org/2000/svg"><title>Krona (snapshot) - Root</title><defs>	<style type="text/css">	text {font-size: 11px; font-family: sans-serif; dominant-baseline:central}	path {stroke-width:0.27499999999999997;}	path.wedge {stroke:none}	path.line {fill:none;stroke:black;}	line {stroke:black;stroke-width:0.27499999999999997;}	line.tick {stroke-width:0.5499999999999999;}	line.pattern {stroke-width:0.18333333333333332;}	circle {fill:none;stroke:black;stroke-width:0.27499999999999997;}	rect {stroke:black;stroke-width:0.27499999999999997;}	.highlight {stroke:black;stroke-width:1.375;}	.searchHighlight {fill:rgb(255, 255, 100);stroke:none;}	</style><pattern id="hiddenPattern" patternUnits="userSpaceOnUse" x="0" y="0" width="6.6" height="6.6"><line class="pattern" x1="0" y1="0" x2="3.3" y2="3.3"/><line class="pattern" x1="3.3" y1="6.6" x2="6.6" y2="3.3"/></pattern></defs><path class="wedge" fill="rgb(220,220,220)" d=" M 793.0845884873579,536.4051542111664 L 805.6539812416366,806.913287851892 A 358.8,358.8 0 0,1 789.0000000000001,807.3 L 789,536.5 A 88,88 0 0 0 793.0845884873579,536.4051542111664 Z "/><path class="wedge" fill="rgb(207,111,111)" d=" M 789,536.5 L 789,807.3 A 358.8,358.8 0 1,1 842.8680190867784,803.2332469894336 L 802.2117772565119,535.5025800865947 A 88,88 0 1 0 789,536.5 Z "/><path class="wedge" fill="rgb(207,111,111)" d=" M 835.4557083377259,588.439555925274 L 902.0445537636347,789.02660522253 A 358.8,358.8 0 0,1 842.8680190867784,803.2332469894336 L 811.1370857782222,594.2777815134061 A 147.44901542473164,147.44901542473164 0 0 0 835.4557083377259,588.439555925274 Z "/><path class="wedge" fill="rgb(210,121,121)" d=" M 789,595.9490154247317 L 789,807.3 A 358.8,358.8 0 1,1 904.0157889490835,788.3658680897802 L 836.2657882910844,588.1680257143529 A 147.44901542473164,147.44901542473164 0 1 0 789,595.9490154247317 Z "/><path class="wedge" fill="rgb(210,121,121)" d=" M 852.4062994308823,625.2058715285058 L 910.1808763856005,786.2167973293864 A 358.8,358.8 0 0,1 904.0157889490835,788.3658680897802 L 849.1804985316257,626.3303445327948 A 187.73737997577226,187.73737997577226 0 0 0 852.4062994308823,625.2058715285058 Z "/><path class="wedge" fill="rgb(213,130,130)" d=" M 789,636.2373799757722 L 789,807.3 A 358.8,358.8 0 1,1 910.6989417237472,786.0304543049708 L 852.6773703039033,625.1083699923281 A 187.73737997577226,187.73737997577226 0 1 0 789,636.2373799757722 Z "/><path class="wedge" fill="rgb(213,130,130)" d=" M 865.8098273000452,651.2239270529336 L 916.1262848998713,784.0239897347979 A 358.8,358.8 0 0,1 910.6989417237472,786.0304543049708 L 862.5306211753283,652.4362349343448 A 216.78731551828835,216.78731551828835 0 0 0 865.8098273000452,651.2239270529336 Z "/><path class="wedge" fill="rgb(216,140,140)" d=" M 789,665.2873155182883 L 789,807.3 A 358.8,358.8 0 1,1 916.7903494301391,783.7716310583448 L 866.2110557472238,651.0714516905701 A 216.78731551828835,216.78731551828835 0 1 0 789,665.2873155182883 Z "/><path class="wedge" fill="rgb(216,140,140)" d=" M 877.7235029763973,670.1025334364982 L 922.3618571016702,781.5946638275577 A 358.8,358.8 0 0,1 916.7903494301391,783.7716310583448 L 874.0168683492171,671.5508347932573 A 238.70388100296378,238.70388100296378 0 0 0 877.7235029763973,670.1025334364982 Z "/><path class="wedge" fill="rgb(219,149,149)" d=" M 789,687.2038810029637 L 789,807.3 A 358.8,358.8 0 1,1 922.5792589791986,781.5075398103895 L 877.8681369560611,670.0445712262791 A 238.70388100296378,238.70388100296378 0 1 0 789,687.2038810029637 Z "/><path class="wedge" fill="rgb(219,149,149)" d=" M 900.0717496925045,678.9466536106501 L 944.7850563685811,771.7158043973686 A 358.8,358.8 0 0,1 922.5792589791986,781.5075398103895 L 884.2394431359598,685.9279726806712 A 255.8175008479703,255.8175008479703 0 0 0 900.0717496925045,678.9466536106501 Z "/><path class="wedge" fill="rgb(223,159,159)" d=" M 789,704.3175008479703 L 789,807.3 A 358.8,358.8 0 1,1 947.6327009606717,770.3277585695835 L 902.1020655309991,677.9570036253479 A 255.8175008479703,255.8175008479703 0 1 0 789,704.3175008479703 Z "/><path class="wedge" fill="rgb(223,159,159)" d=" M 933.4512595613993,676.0720756718588 L 981.2827692915358,751.4270153577888 A 358.8,358.8 0 0,1 947.6327009606717,770.3277585695835 L 908.1718506334437,690.2711439172863 A 269.54631515654773,269.54631515654773 0 0 0 933.4512595613993,676.0720756718588 Z "/><path class="wedge" fill="rgb(226,168,168)" d=" M 789,718.0463151565477 L 789,807.3 A 358.8,358.8 0 1,1 983.8492071429715,749.7826355363936 L 935.3792803694618,674.8367453441696 A 269.54631515654773,269.54631515654773 0 1 0 789,718.0463151565477 Z "/><path class="wedge" fill="rgb(226,168,168)" d=" M 1037.126834960237,579.9633877370997 L 1106.0491291699038,616.4800276598548 A 358.8,358.8 0 0,1 983.8492071429715,749.7826355363936 L 941.4915623943828,684.2877688541536 A 280.8016177708022,280.8016177708022 0 0 0 1037.126834960237,579.9633877370997 Z "/><path class="wedge" fill="rgb(229,178,178)" d=" M 789,729.3016177708022 L 789,807.3 A 358.8,358.8 0 1,1 1107.093178467002,614.4944872962953 L 1037.9439217262839,578.4094776305312 A 280.8016177708022,280.8016177708022 0 1 0 789,729.3016177708022 Z "/><path class="wedge" fill="rgb(229,178,178)" d=" M 1068.1608772607522,369.23797108547933 L 1134.157040868913,350.4997084768852 A 358.8,358.8 0 0,1 1107.093178467002,614.4944872962953 L 1046.271792943764,582.7553134000291 A 290.19521812159314,290.19521812159314 0 0 0 1068.1608772607522,369.23797108547933 Z "/><path class="wedge" fill="rgb(229,178,178)" d=" M 789,738.6952181215931 L 789,807.3 A 358.8,358.8 0 1,1 1119.5684566966079,308.99395913716546 L 1056.3617207223817,335.668378044955 A 290.19521812159314,290.19521812159314 0 1 0 789,738.6952181215931 Z "/><path class="wedge" fill="rgb(229,178,178)" d=" M 701.347335155902,733.4774727832929 L 683.5179586618935,791.4445712577267 A 358.8,358.8 0 1,1 1119.5684566966079,308.99395913716546 L 1063.6932631876448,332.5743306788891 A 298.1528964276957,298.1528964276957 0 1 0 701.347335155902,733.4774727832929 Z "/><path class="wedge" fill="rgb(229,178,178)" d=" M 789,746.6528964276956 L 789,807.3 A 358.8,358.8 0 0,1 683.5179586618935,791.4445712577267 L 701.347335155902,733.4774727832929 A 298.1528964276957,298.1528964276957 0 0 0 789,746.6528964276956 Z "/><path class="wedge" fill="rgb(229,195,178)" d=" M 1056.3617207223817,335.668378044955 L 1119.5684566966079,308.99395913716546 A 358.8,358.8 0 0,1 1125.842567268871,324.90985121897444 L 1061.436182500634,348.5410530011431 A 290.19521812159314,290.19521812159314 0 0 0 1056.3617207223817,335.668378044955 Z "/><path class="wedge" fill="rgb(229,195,178)" d=" M 1063.7183610164307,332.63381956467924 L 1119.59865965984,309.06554862188034 A 358.8,358.8 0 0,1 1125.842567268871,324.90985121897444 L 1068.9068758956378,345.7999976895412 A 298.1528964276957,298.1528964276957 0 0 0 1063.7183610164307,332.63381956467924 Z "/><path class="wedge" fill="rgb(229,195,178)" d=" M 1063.6932631876448,332.5743306788891 L 1119.5684566966079,308.99395913716546 A 358.8,358.8 0 0,1 1119.59865965984,309.06554862188034 L 1063.7183610164307,332.63381956467924 A 298.1528964276957,298.1528964276957 0 0 0 1063.6932631876448,332.5743306788891 Z "/><path class="wedge" fill="url(#hiddenPattern)" d=" M 1063.6932631876448,332.5743306788891 L 1119.5684566966079,308.99395913716546 A 358.8,358.8 0 0,1 1119.59865965984,309.06554862188034 L 1063.7183610164307,332.63381956467924 A 298.1528964276957,298.1528964276957 0 0 0 1063.6932631876448,332.5743306788891 Z "/><path class="wedge" fill="rgb(229,195,178)" d=" M 1061.436182500634,348.5410530011431 L 1125.842567268871,324.90985121897444 A 358.8,358.8 0 0,1 1134.157040868913,350.4997084768852 L 1068.1608772607522,369.23797108547933 A 290.19521812159314,290.19521812159314 0 0 0 1061.436182500634,348.5410530011431 Z "/><path class="wedge" fill="url(#hiddenPattern)" d=" M 1061.436182500634,348.5410530011431 L 1125.842567268871,324.90985121897444 A 358.8,358.8 0 0,1 1134.157040868913,350.4997084768852 L 1068.1608772607522,369.23797108547933 A 290.19521812159314,290.19521812159314 0 0 0 1061.436182500634,348.5410530011431 Z "/><path class="wedge" fill="rgb(226,191,168)" d=" M 1037.9439217262839,578.4094776305312 L 1107.093178467002,614.4944872962953 A 358.8,358.8 0 0,1 1106.0491291699038,616.4800276598548 L 1037.126834960237,579.9633877370997 A 280.8016177708022,280.8016177708022 0 0 0 1037.9439217262839,578.4094776305312 Z "/><path class="wedge" fill="url(#hiddenPattern)" d=" M 1037.9439217262839,578.4094776305312 L 1107.093178467002,614.4944872962953 A 358.8,358.8 0 0,1 1106.0491291699038,616.4800276598548 L 1037.126834960237,579.9633877370997 A 280.8016177708022,280.8016177708022 0 0 0 1037.9439217262839,578.4094776305312 Z "/><path class="wedge" fill="rgb(223,187,159)" d=" M 935.3792803694618,674.8367453441696 L 983.8492071429715,749.7826355363936 A 358.8,358.8 0 0,1 981.2827692915358,751.4270153577888 L 933.4512595613993,676.0720756718588 A 269.54631515654773,269.54631515654773 0 0 0 935.3792803694618,674.8367453441696 Z "/><path class="wedge" fill="url(#hiddenPattern)" d=" M 935.3792803694618,674.8367453441696 L 983.8492071429715,749.7826355363936 A 358.8,358.8 0 0,1 981.2827692915358,751.4270153577888 L 933.4512595613993,676.0720756718588 A 269.54631515654773,269.54631515654773 0 0 0 935.3792803694618,674.8367453441696 Z "/><path class="wedge" fill="rgb(219,181,149)" d=" M 902.1020655309991,677.9570036253479 L 947.6327009606717,770.3277585695835 A 358.8,358.8 0 0,1 944.7850563685811,771.7158043973686 L 900.0717496925045,678.9466536106501 A 255.8175008479703,255.8175008479703 0 0 0 902.1020655309991,677.9570036253479 Z "/><path class="wedge" fill="url(#hiddenPattern)" d=" M 902.1020655309991,677.9570036253479 L 947.6327009606717,770.3277585695835 A 358.8,358.8 0 0,1 944.7850563685811,771.7158043973686 L 900.0717496925045,678.9466536106501 A 255.8175008479703,255.8175008479703 0 0 0 902.1020655309991,677.9570036253479 Z "/><path class="wedge" fill="rgb(216,175,140)" d=" M 877.8681369560611,670.0445712262791 L 922.5792589791986,781.5075398103895 A 358.8,358.8 0 0,1 922.3618571016702,781.5946638275577 L 877.7235029763973,670.1025334364982 A 238.70388100296378,238.70388100296378 0 0 0 877.8681369560611,670.0445712262791 Z "/><path class="wedge" fill="url(#hiddenPattern)" d=" M 877.8681369560611,670.0445712262791 L 922.5792589791986,781.5075398103895 A 358.8,358.8 0 0,1 922.3618571016702,781.5946638275577 L 877.7235029763973,670.1025334364982 A 238.70388100296378,238.70388100296378 0 0 0 877.8681369560611,670.0445712262791 Z "/><path class="wedge" fill="rgb(213,169,130)" d=" M 866.2110557472238,651.0714516905701 L 916.7903494301391,783.7716310583448 A 358.8,358.8 0 0,1 916.1262848998713,784.0239897347979 L 865.8098273000452,651.2239270529336 A 216.78731551828835,216.78731551828835 0 0 0 866.2110557472238,651.0714516905701 Z "/><path class="wedge" fill="url(#hiddenPattern)" d=" M 866.2110557472238,651.0714516905701 L 916.7903494301391,783.7716310583448 A 358.8,358.8 0 0,1 916.1262848998713,784.0239897347979 L 865.8098273000452,651.2239270529336 A 216.78731551828835,216.78731551828835 0 0 0 866.2110557472238,651.0714516905701 Z "/><path class="wedge" fill="rgb(210,163,121)" d=" M 852.6773703039033,625.1083699923281 L 910.6989417237472,786.0304543049708 A 358.8,358.8 0 0,1 910.1808763856005,786.2167973293864 L 852.4062994308823,625.2058715285058 A 187.73737997577226,187.73737997577226 0 0 0 852.6773703039033,625.1083699923281 Z "/><path class="wedge" fill="url(#hiddenPattern)" d=" M 852.6773703039033,625.1083699923281 L 910.6989417237472,786.0304543049708 A 358.8,358.8 0 0,1 910.1808763856005,786.2167973293864 L 852.4062994308823,625.2058715285058 A 187.73737997577226,187.73737997577226 0 0 0 852.6773703039033,625.1083699923281 Z "/><path class="wedge" fill="rgb(207,158,111)" d=" M 836.2657882910844,588.1680257143529 L 904.0157889490835,788.3658680897802 A 358.8,358.8 0 0,1 902.0445537636347,789.02660522253 L 835.4557083377259,588.439555925274 A 147.44901542473164,147.44901542473164 0 0 0 836.2657882910844,588.1680257143529 Z "/><path class="wedge" fill="url(#hiddenPattern)" d=" M 836.2657882910844,588.1680257143529 L 904.0157889490835,788.3658680897802 A 358.8,358.8 0 0,1 902.0445537636347,789.02660522253 L 835.4557083377259,588.439555925274 A 147.44901542473164,147.44901542473164 0 0 0 836.2657882910844,588.1680257143529 Z "/><path class="wedge" fill="rgb(188,207,111)" d=" M 802.2117772565119,535.5025800865947 L 842.8680190867784,803.2332469894336 A 358.8,358.8 0 0,1 817.3763063146573,806.1761457519033 L 795.95962919646,536.2243612769439 A 88,88 0 0 0 802.2117772565119,535.5025800865947 Z "/><path class="wedge" fill="rgb(101,204,142)" d=" M 795.95962919646,536.2243612769439 L 817.3763063146573,806.1761457519033 A 358.8,358.8 0 0,1 805.7360321613352,806.9094658731752 L 793.1047124587444,536.404216825082 A 88,88 0 0 0 795.95962919646,536.2243612769439 Z "/><path class="wedge" fill="url(#hiddenPattern)" d=" M 795.95962919646,536.2243612769439 L 817.3763063146573,806.1761457519033 A 358.8,358.8 0 0,1 805.7360321613352,806.9094658731752 L 793.1047124587444,536.404216825082 A 88,88 0 0 0 795.95962919646,536.2243612769439 Z "/><rect fill="rgb(101,204,142)" x="1692.545" y="773.545" width="22" height="22"/><rect fill="url(#hiddenPattern)" style="stroke:none" x="1692.545" y="773.545" width="22" height="22"/><path class="line" d="M 811.5591491482543,806.5901070815931 L 814.9430215204925,860.3036231438322 A 412.62000000000006,412.62000000000006 0 0,0 1028.4347977529583,784.545 L 1228.53,784.545 L 1595.9440885416668,784.545"/><text x="1685.2116666666668" y="784.545" style="font-color:black;font-weight:normal" text-anchor="end">Eukaryota&#160;&#160;&#160;0.5%</text><path class="wedge" fill="rgb(101,142,204)" d=" M 793.1047124587444,536.404216825082 L 805.7360321613352,806.9094658731752 A 358.8,358.8 0 0,1 805.6850276384554,806.9118439068441 L 793.0922029882499,536.4048000663386 A 88,88 0 0 0 793.1047124587444,536.404216825082 Z "/><path class="wedge" fill="url(#hiddenPattern)" d=" M 793.1047124587444,536.404216825082 L 805.7360321613352,806.9094658731752 A 358.8,358.8 0 0,1 805.6850276384554,806.9118439068441 L 793.0922029882499,536.4048000663386 A 88,88 0 0 0 793.1047124587444,536.404216825082 Z "/><rect fill="rgb(101,142,204)" x="1692.545" y="802.8783333333333" width="22" height="22"/><rect fill="url(#hiddenPattern)" style="stroke:none" x="1692.545" y="802.8783333333333" width="22" height="22"/><path class="line" d="M 805.7105299421966,806.9106557973005 L 808.634872682081,869.632520561828 A 421.59000000000003,421.59000000000003 0 0,0 999.3254659582515,813.8783333333333 L 1217.53,813.8783333333333 L 1592.2648893229168,813.8783333333333"/><text x="1685.2116666666668" y="813.8783333333333" style="font-color:black;font-weight:normal" text-anchor="end">Archaea&#160;&#160;&#160;0.002%</text><path class="wedge" fill="rgb(183,101,204)" d=" M 793.0922029882499,536.4048000663386 L 805.6850276384554,806.9118439068441 A 358.8,358.8 0 0,1 805.6539812416366,806.913287851892 L 793.0845884873579,536.4051542111664 A 88,88 0 0 0 793.0922029882499,536.4048000663386 Z "/><path class="wedge" fill="url(#hiddenPattern)" d=" M 793.0922029882499,536.4048000663386 L 805.6850276384554,806.9118439068441 A 358.8,358.8 0 0,1 805.6539812416366,806.913287851892 L 793.0845884873579,536.4051542111664 A 88,88 0 0 0 793.0922029882499,536.4048000663386 Z "/><rect fill="rgb(183,101,204)" x="1692.545" y="832.2116666666667" width="22" height="22"/><rect fill="url(#hiddenPattern)" style="stroke:none" x="1692.545" y="832.2116666666667" width="22" height="22"/><path class="line" d="M 805.6695044556806,806.9125662155305 L 809.0034053468167,878.5950794586367 A 430.56000000000006,430.56000000000006 0 0,0 961.0017842849959,843.2116666666667 L 1206.53,843.2116666666667 L 1596.7497526041668,843.2116666666667"/><text x="1685.2116666666668" y="843.2116666666667" style="font-color:black;font-weight:normal" text-anchor="end">Viruses&#160;&#160;&#160;0.001%</text><circle cx="789" cy="448.5" r="88"/><circle cx="789" cy="448.5" r="358.8"/><text x="789" y="448.5" text-anchor="middle" style="font-color:black;font-weight:bold" transform="rotate(360,789,448.5)">Root</text><rect fill="rgb(220,220,220)" x="1692.545" y="861.545" width="22" height="22"/><path class="line" d="M 797.3292352212295,807.2033089345978 L 799.203313146006,887.9115534448822 A 439.53000000000003,439.53000000000003 0 0,0 904.639348298925,872.545 L 1195.53,872.545 L 1587.9948697916668,872.545"/><text x="1685.2116666666668" y="872.545" style="font-color:black;font-weight:normal" text-anchor="end">[other Root]&#160;&#160;&#160;0.7%</text><path class="line" d=" M 802.2117772565119,535.5025800865947 A 88,88 0 1 0 789,536.5"/><line x1="842.8680190867784" y1="803.2332469894336" x2="802.2117772565119" y2="535.5025800865947"/><text x="789" y="330.77549228763417" text-anchor="middle" style="font-color:black;font-weight:normal" transform="rotate(355.68265878877406,789,448.5)">Bacteria</text><path class="line" d=" M 836.2657882910844,588.1680257143529 A 147.44901542473164,147.44901542473164 0 1 0 789,595.9490154247317"/><line x1="904.0157889490835" y1="788.3658680897802" x2="836.2657882910844" y2="588.1680257143529"/><text x="789" y="288.96447520995616" text-anchor="middle" style="font-color:black;font-weight:normal" transform="rotate(350.6516986706056,789,448.5)">Terrabacteria group</text><path class="line" d=" M 852.6773703039033,625.1083699923281 A 187.73737997577226,187.73737997577226 0 1 0 789,636.2373799757722"/><line x1="910.6989417237472" y1="786.0304543049708" x2="852.6773703039033" y2="625.1083699923281"/><text x="789" y="252.0476393614729" text-anchor="middle" style="font-color:black;font-weight:normal" transform="rotate(350.0864401772526,789,448.5)">Firmicutes</text><path class="line" d=" M 866.2110557472238,651.0714516905701 A 216.78731551828835,216.78731551828835 0 1 0 789,665.2873155182883"/><line x1="916.7903494301391" y1="783.7716310583448" x2="866.2110557472238" y2="651.0714516905701"/><text x="789" y="220.75440173937395" text-anchor="middle" style="font-color:black;font-weight:normal" transform="rotate(349.56771048744463,789,448.5)">Bacilli</text><path class="line" d=" M 877.8681369560611,670.0445712262791 A 238.70388100296378,238.70388100296378 0 1 0 789,687.2038810029637"/><line x1="922.5792589791986" y1="781.5075398103895" x2="877.8681369560611" y2="670.0445712262791"/><text x="789" y="201.23930907453297" text-anchor="middle" style="font-color:black;font-weight:normal" transform="rotate(349.07140324963075,789,448.5)">Bacillales</text><path class="line" d=" M 902.1020655309991,677.9570036253479 A 255.8175008479703,255.8175008479703 0 1 0 789,704.3175008479703"/><line x1="947.6327009606717" y1="770.3277585695835" x2="902.1020655309991" y2="677.9570036253479"/><text x="789" y="185.81809199774102" text-anchor="middle" style="font-color:black;font-weight:normal" transform="rotate(346.88038404726734,789,448.5)">Bacillaceae</text><path class="line" d=" M 935.3792803694618,674.8367453441696 A 269.54631515654773,269.54631515654773 0 1 0 789,718.0463151565477"/><line x1="983.8492071429715" y1="749.7826355363936" x2="935.3792803694618" y2="674.8367453441696"/><path class="line" d=" M 1037.9439217262839,578.4094776305312 A 280.8016177708022,280.8016177708022 0 1 0 789,729.3016177708022"/><line x1="1107.093178467002" y1="614.4944872962953" x2="1037.9439217262839" y2="578.4094776305312"/><path class="line" d=" M 1056.3617207223817,335.668378044955 A 290.19521812159314,290.19521812159314 0 1 0 789,738.6952181215931"/><line x1="1119.5684566966079" y1="308.99395913716546" x2="1056.3617207223817" y2="335.668378044955"/><text x="464.5023909392034" y="448.5" text-anchor="end" style="font-color:black;font-weight:normal" transform="rotate(33.55967503692762,789,448.5)">Bacillus pseudomycoides&#160;&#160;&#160;69%</text><path class="line" d=" M 701.347335155902,733.4774727832929 A 298.1528964276957,298.1528964276957 0 0 0 789,746.6528964276956"/><line x1="683.5179586618935" y1="791.4445712577267" x2="701.347335155902" y2="733.4774727832929"/><text x="460.52355178615215" y="448.5" text-anchor="end" style="font-color:black;font-weight:normal" transform="rotate(-81.45163958641064,789,448.5)">Bacillus pseudomycoides DSM 12442&#160;&#160;&#160;5%</text><path class="line" d=" M 1061.436182500634,348.5410530011431 A 290.19521812159314,290.19521812159314 0 0 0 1056.3617207223817,335.668378044955"/><line x1="1125.842567268871" y1="324.90985121897444" x2="1061.436182500634" y2="348.5410530011431"/><text x="1113.4976090607965" y="448.5" text-anchor="start" style="font-color:black;font-weight:normal" transform="rotate(338.48543574593793,789,448.5)">0.8%&#160;&#160;&#160;Bacillus mycoides</text><path class="line" d=" M 1063.7183610164307,332.63381956467924 A 298.1528964276957,298.1528964276957 0 0 0 1063.6932631876448,332.5743306788891"/><line x1="1119.59865965984" y1="309.06554862188034" x2="1063.7183610164307" y2="332.63381956467924"/><line x1="1139.55" y1="448.5" x2="1156.05" y2="448.5" class="tick" transform="rotate(342.0003545051698,789,448.5)"/><text x="1158.8" y="448.5" text-anchor="start" style="font-color:black;font-weight:normal" transform="rotate(342.0003545051698,789,448.5)">15 more</text><path class="line" d=" M 1068.1608772607522,369.23797108547933 A 290.19521812159314,290.19521812159314 0 0 0 1061.436182500634,348.5410530011431"/><line x1="1134.157040868913" y1="350.4997084768852" x2="1068.1608772607522" y2="369.23797108547933"/><path class="line" d=" M 1037.126834960237,579.9633877370997 A 280.8016177708022,280.8016177708022 0 0 0 1037.9439217262839,578.4094776305312"/><line x1="1106.0491291699038" y1="616.4800276598548" x2="1037.126834960237" y2="579.9633877370997"/><path class="line" d=" M 933.4512595613993,676.0720756718588 A 269.54631515654773,269.54631515654773 0 0 0 935.3792803694618,674.8367453441696"/><line x1="981.2827692915358" y1="751.4270153577888" x2="933.4512595613993" y2="676.0720756718588"/><path class="line" d=" M 900.0717496925045,678.9466536106501 A 255.8175008479703,255.8175008479703 0 0 0 902.1020655309991,677.9570036253479"/><line x1="944.7850563685811" y1="771.7158043973686" x2="900.0717496925045" y2="678.9466536106501"/><path class="line" d=" M 877.7235029763973,670.1025334364982 A 238.70388100296378,238.70388100296378 0 0 0 877.8681369560611,670.0445712262791"/><line x1="922.3618571016702" y1="781.5946638275577" x2="877.7235029763973" y2="670.1025334364982"/><path class="line" d=" M 865.8098273000452,651.2239270529336 A 216.78731551828835,216.78731551828835 0 0 0 866.2110557472238,651.0714516905701"/><line x1="916.1262848998713" y1="784.0239897347979" x2="865.8098273000452" y2="651.2239270529336"/><path class="line" d=" M 852.4062994308823,625.2058715285058 A 187.73737997577226,187.73737997577226 0 0 0 852.6773703039033,625.1083699923281"/><line x1="910.1808763856005" y1="786.2167973293864" x2="852.4062994308823" y2="625.2058715285058"/><path class="line" d=" M 835.4557083377259,588.439555925274 A 147.44901542473164,147.44901542473164 0 0 0 836.2657882910844,588.1680257143529"/><line x1="902.0445537636347" y1="789.02660522253" x2="835.4557083377259" y2="588.439555925274"/><path class="line" d=" M 795.95962919646,536.2243612769439 A 88,88 0 0 0 802.2117772565119,535.5025800865947"/><line x1="817.3763063146573" y1="806.1761457519033" x2="795.95962919646" y2="536.2243612769439"/><text x="1012.4" y="448.5" text-anchor="start" style="font-color:black;font-weight:normal" transform="rotate(443.41462333825706,789,448.5)">1%&#160;&#160;&#160;No hits</text><path class="line" d=" M 793.1047124587444,536.404216825082 A 88,88 0 0 0 795.95962919646,536.2243612769439"/><line x1="805.7360321613352" y1="806.9094658731752" x2="793.1047124587444" y2="536.404216825082"/><path class="line" d=" M 793.0922029882499,536.4048000663386 A 88,88 0 0 0 793.1047124587444,536.404216825082"/><line x1="805.6850276384554" y1="806.9118439068441" x2="793.0922029882499" y2="536.4048000663386"/><path class="line" d=" M 793.0845884873579,536.4051542111664 A 88,88 0 0 0 793.0922029882499,536.4048000663386"/><line x1="805.6539812416366" y1="806.913287851892" x2="793.0845884873579" y2="536.4051542111664"/></svg>