<?xml version="1.0" encoding="UTF-8" standalone="no"?><!DOCTYPE svg PUBLIC "-//W3C//DTD SVG 1.1//EN" "http://www.w3.org/Graphics/SVG/1.1/DTD/svg11.dtd"><svg width="100%" height="100%" viewBox="0 0 14044 9934" version="1.1" xmlns="http://www.w3.org/2000/svg" xmlns:xlink="http://www.w3.org/1999/xlink" xml:space="preserve" xmlns:serif="http://www.serif.com/" style="fill-rule:evenodd;clip-rule:evenodd;stroke-linecap:round;stroke-linejoin:round;stroke-miterlimit:10;"><clipPath id="_clip1"><rect id="_04-phylogenetic_tree.tre.pdf" serif:id="04-phylogenetic_tree.tre.pdf" x="186.049" y="793.189" width="13609.2" height="7990.44"/></clipPath><g clip-path="url(#_clip1)"><g><path d="M3846.87,8557.75l810.244,-0" style="fill:none;fill-rule:nonzero;stroke:#000;stroke-width:9.41px;"/><path d="M610.794,5531.92l-0,230.584" style="fill:none;fill-rule:nonzero;stroke:#000;stroke-width:18.82px;stroke-linecap:butt;stroke-linejoin:miter;"/><path d="M598.559,5070.76l-0,-461.168" style="fill:none;fill-rule:nonzero;stroke:#000;stroke-width:18.82px;stroke-linecap:butt;stroke-linejoin:miter;"/><path d="M610.794,5762.51l-35.858,-0l-0,345.876" style="fill:none;fill-rule:nonzero;stroke:#000;stroke-width:18.82px;stroke-linecap:butt;stroke-linejoin:miter;"/><path d="M6486.17,2073.16l-3428.08,-0l-0,-461.168" style="fill:none;fill-rule:nonzero;stroke:#000;stroke-width:18.82px;stroke-linecap:butt;stroke-linejoin:miter;"/><path d="M574.936,6108.38l-59.952,-0l-0,-749.445" style="fill:none;fill-rule:nonzero;stroke:#000;stroke-width:18.82px;stroke-linecap:butt;stroke-linejoin:miter;"/><path d="M242.518,7150.81l79.434,0" style="fill:none;fill-rule:nonzero;stroke:#000;stroke-width:18.82px;stroke-linecap:butt;stroke-linejoin:miter;"/><path d="M5597.24,1381.41l0,-230.584" style="fill:none;fill-rule:nonzero;stroke:#000;stroke-width:18.82px;stroke-linecap:butt;stroke-linejoin:miter;"/><path d="M449.479,4177.22l-54.869,0l-0,1369.1" style="fill:none;fill-rule:nonzero;stroke:#000;stroke-width:18.82px;stroke-linecap:butt;stroke-linejoin:miter;"/><path d="M394.61,5546.32l-72.658,-0l0,1604.49" style="fill:none;fill-rule:nonzero;stroke:#000;stroke-width:18.82px;stroke-linecap:butt;stroke-linejoin:miter;"/><path d="M321.952,8298.93l0,-1148.12" style="fill:none;fill-rule:nonzero;stroke:#000;stroke-width:18.82px;stroke-linecap:butt;stroke-linejoin:miter;"/><path d="M394.61,7376.59l-48.47,0l-0,230.584" style="fill:none;fill-rule:nonzero;stroke:#000;stroke-width:18.82px;stroke-linecap:butt;stroke-linejoin:miter;"/><path d="M7907.13,2303.75l-1420.96,0l-0,-230.583" style="fill:none;fill-rule:nonzero;stroke:#000;stroke-width:18.82px;stroke-linecap:butt;stroke-linejoin:miter;"/><path d="M598.559,4148.42l-0,461.167" style="fill:none;fill-rule:nonzero;stroke:#000;stroke-width:18.82px;stroke-linecap:butt;stroke-linejoin:miter;"/><path d="M3942.97,2764.92l-1199.6,0l0,230.584" style="fill:none;fill-rule:nonzero;stroke:#000;stroke-width:18.82px;stroke-linecap:butt;stroke-linejoin:miter;"/><path d="M514.984,5358.94l-65.505,0l0,-1181.72" style="fill:none;fill-rule:nonzero;stroke:#000;stroke-width:18.82px;stroke-linecap:butt;stroke-linejoin:miter;"/><path d="M479.502,6915.43l-84.892,-0l-0,-1369.1" style="fill:none;fill-rule:nonzero;stroke:#000;stroke-width:18.82px;stroke-linecap:butt;stroke-linejoin:miter;"/><path d="M8261.47,1842.58l-1775.31,-0l-0,230.584" style="fill:none;fill-rule:nonzero;stroke:#000;stroke-width:18.82px;stroke-linecap:butt;stroke-linejoin:miter;"/><path d="M610.794,5993.09l-0,-230.584" style="fill:none;fill-rule:nonzero;stroke:#000;stroke-width:18.82px;stroke-linecap:butt;stroke-linejoin:miter;"/><path d="M622.746,6454.26l-47.81,-0l-0,-345.876" style="fill:none;fill-rule:nonzero;stroke:#000;stroke-width:18.82px;stroke-linecap:butt;stroke-linejoin:miter;"/><path d="M5597.24,1150.83l-2539.15,-0l-0,461.168" style="fill:none;fill-rule:nonzero;stroke:#000;stroke-width:18.82px;stroke-linecap:butt;stroke-linejoin:miter;"/><path d="M598.559,4609.59l-83.575,0l-0,749.351" style="fill:none;fill-rule:nonzero;stroke:#000;stroke-width:18.82px;stroke-linecap:butt;stroke-linejoin:miter;"/><path d="M5597.24,920.245l0,230.584" style="fill:none;fill-rule:nonzero;stroke:#000;stroke-width:18.82px;stroke-linecap:butt;stroke-linejoin:miter;"/><path d="M3058.09,1612l-1182.94,-0l0,691.751" style="fill:none;fill-rule:nonzero;stroke:#000;stroke-width:18.82px;stroke-linecap:butt;stroke-linejoin:miter;"/><path d="M2743.37,2995.5l-868.219,0l0,-691.752" style="fill:none;fill-rule:nonzero;stroke:#000;stroke-width:18.82px;stroke-linecap:butt;stroke-linejoin:miter;"/><path d="M4849.59,3226.08l-2106.22,0l0,-230.584" style="fill:none;fill-rule:nonzero;stroke:#000;stroke-width:18.82px;stroke-linecap:butt;stroke-linejoin:miter;"/><path d="M1005.89,2995.5l-556.413,0l0,1181.72" style="fill:none;fill-rule:nonzero;stroke:#000;stroke-width:18.82px;stroke-linecap:butt;stroke-linejoin:miter;"/><path d="M1748.56,3687.25l-742.669,-0l0,-691.752" style="fill:none;fill-rule:nonzero;stroke:#000;stroke-width:18.82px;stroke-linecap:butt;stroke-linejoin:miter;"/><path d="M370.328,7837.76l-24.188,0l-0,-230.584" style="fill:none;fill-rule:nonzero;stroke:#000;stroke-width:18.82px;stroke-linecap:butt;stroke-linejoin:miter;"/><path d="M1875.15,2303.75l-869.254,0l0,691.752" style="fill:none;fill-rule:nonzero;stroke:#000;stroke-width:18.82px;stroke-linecap:butt;stroke-linejoin:miter;"/><path d="M346.14,7607.18l-24.188,0l0,-456.368" style="fill:none;fill-rule:nonzero;stroke:#000;stroke-width:18.82px;stroke-linecap:butt;stroke-linejoin:miter;"/><text x="4118.02px" y="8698.92px" style="font-family:'Helvetica';font-size:94.116px;">0<tspan x="4178.44px 4212.67px 4273.1px 4333.52px " y="8698.92px 8698.92px 8698.92px 8698.92px ">.006</tspan></text><text x="488.725px" y="7418.95px" style="font-family:'Helvetica';font-size:112.939px;">G<tspan x="579.94px 664.868px 737.223px 803.401px 869.58px 935.758px 1001.94px 1068.12px 1134.29px 1200.47px 1266.65px 1332.83px 1399.01px 1433.75px 1499.93px 1566.11px 1644.81px 1710.98px 1770.82px 1805.57px 1871.74px 1912.72px 1941.18px 2007.36px 2073.54px 2152.23px 2218.41px 2278.25px 2306.71px 2335.16px 2363.62px 2429.8px 2464.55px 2530.73px 2596.9px 2675.6px 2741.78px 2801.62px 2830.07px 2858.53px 2886.99px 2915.45px 2981.63px 3060.33px 3126.5px 3186.34px 3214.8px 3243.26px 3271.72px 3337.89px 3397.73px 3463.91px 3530.09px 3589.92px 3656.1px 3722.28px 3788.46px 3854.64px 3952.08px 4011.92px 4071.76px 4137.94px 4166.39px 4232.57px 4298.75px 4358.59px 4424.77px 4509.69px 4575.87px 4635.71px 4695.55px 4761.72px 4802.7px 4868.88px " y="7418.95px 7418.95px 7418.95px 7418.95px 7418.95px 7418.95px 7418.95px 7418.95px 7418.95px 7418.95px 7418.95px 7418.95px 7418.95px 7418.95px 7418.95px 7418.95px 7418.95px 7418.95px 7418.95px 7418.95px 7418.95px 7418.95px 7418.95px 7418.95px 7418.95px 7418.95px 7418.95px 7418.95px 7418.95px 7418.95px 7418.95px 7418.95px 7418.95px 7418.95px 7418.95px 7418.95px 7418.95px 7418.95px 7418.95px 7418.95px 7418.95px 7418.95px 7418.95px 7418.95px 7418.95px 7418.95px 7418.95px 7418.95px 7418.95px 7418.95px 7418.95px 7418.95px 7418.95px 7418.95px 7418.95px 7418.95px 7418.95px 7418.95px 7418.95px 7418.95px 7418.95px 7418.95px 7418.95px 7418.95px 7418.95px 7418.95px 7418.95px 7418.95px 7418.95px 7418.95px 7418.95px 7418.95px 7418.95px 7418.95px ">CF_000161435.1_Bacteria_Bacillota_Bacilli_Bacillus_pseudomycoides_Rock3-17</tspan></text><text x="8001.24px" y="2346.1px" style="font-family:'Helvetica';font-size:112.939px;">G<tspan x="8091.69px 8175.84px 8247.43px 8312.83px 8378.24px 8443.65px 8509.05px 8574.46px 8639.87px 8705.27px 8770.68px 8836.09px 8901.49px 8935.47px 9000.87px 9066.28px 9144.21px 9209.61px 9268.68px 9302.65px 9368.06px 9408.26px 9435.95px 9501.36px 9566.76px 9644.69px 9710.09px 9769.16px 9796.85px 9824.53px 9852.22px 9917.63px 9951.6px 10017px 10082.4px 10160.3px 10225.7px 10284.8px 10312.5px 10340.2px 10367.9px 10395.6px 10461px 10538.9px 10604.3px 10663.4px 10691px 10718.7px 10746.4px 10811.8px 10870.9px 10936.3px 10995.4px 11060.8px 11101px 11166.4px 11231.8px 11290.9px 11356.3px 11434.2px 11512.1px 11602.6px 11668px 11745.9px 11811.3px 11851.5px " y="2346.1px 2346.1px 2346.1px 2346.1px 2346.1px 2346.1px 2346.1px 2346.1px 2346.1px 2346.1px 2346.1px 2346.1px 2346.1px 2346.1px 2346.1px 2346.1px 2346.1px 2346.1px 2346.1px 2346.1px 2346.1px 2346.1px 2346.1px 2346.1px 2346.1px 2346.1px 2346.1px 2346.1px 2346.1px 2346.1px 2346.1px 2346.1px 2346.1px 2346.1px 2346.1px 2346.1px 2346.1px 2346.1px 2346.1px 2346.1px 2346.1px 2346.1px 2346.1px 2346.1px 2346.1px 2346.1px 2346.1px 2346.1px 2346.1px 2346.1px 2346.1px 2346.1px 2346.1px 2346.1px 2346.1px 2346.1px 2346.1px 2346.1px 2346.1px 2346.1px 2346.1px 2346.1px 2346.1px 2346.1px 2346.1px 2346.1px ">CF_000291515.1_Bacteria_Bacillota_Bacilli_Bacillus_cereus_BAG2X1-3</tspan></text><text x="704.91px" y="5574.28px" style="font-family:'Helvetica';font-size:112.939px;">G<tspan x="795.646px 880.097px 951.973px 1017.67px 1083.37px 1149.08px 1214.78px 1280.48px 1346.18px 1411.88px 1477.58px 1543.28px 1608.98px 1643.25px 1708.95px 1774.65px 1852.87px 1918.57px 1977.92px 2012.19px 2077.89px 2118.39px 2146.37px 2212.07px 2277.77px 2355.99px 2421.69px 2481.05px 2509.03px 2537.01px 2564.99px 2630.69px 2664.96px 2730.66px 2796.36px 2874.58px 2940.28px 2999.64px 3027.62px 3055.6px 3083.58px 3111.56px 3177.26px 3255.48px 3321.18px 3380.54px 3408.52px 3436.5px 3464.48px 3530.18px 3589.54px 3655.24px 3720.94px 3780.3px 3846px 3911.7px 3977.4px 4043.1px 4140.07px 4199.43px 4258.79px 4324.49px 4352.47px 4418.17px 4483.87px 4543.23px 4608.93px 4693.38px 4771.6px 4868.57px 4934.27px 4999.97px 5065.67px 5131.37px 5197.07px " y="5574.28px 5574.28px 5574.28px 5574.28px 5574.28px 5574.28px 5574.28px 5574.28px 5574.28px 5574.28px 5574.28px 5574.28px 5574.28px 5574.28px 5574.28px 5574.28px 5574.28px 5574.28px 5574.28px 5574.28px 5574.28px 5574.28px 5574.28px 5574.28px 5574.28px 5574.28px 5574.28px 5574.28px 5574.28px 5574.28px 5574.28px 5574.28px 5574.28px 5574.28px 5574.28px 5574.28px 5574.28px 5574.28px 5574.28px 5574.28px 5574.28px 5574.28px 5574.28px 5574.28px 5574.28px 5574.28px 5574.28px 5574.28px 5574.28px 5574.28px 5574.28px 5574.28px 5574.28px 5574.28px 5574.28px 5574.28px 5574.28px 5574.28px 5574.28px 5574.28px 5574.28px 5574.28px 5574.28px 5574.28px 5574.28px 5574.28px 5574.28px 5574.28px 5574.28px 5574.28px 5574.28px 5574.28px 5574.28px 5574.28px 5574.28px ">CF_000161455.1_Bacteria_Bacillota_Bacilli_Bacillus_pseudomycoides_DSM_12442</tspan></text><text x="692.675px" y="4190.77px" style="font-family:'Helvetica';font-size:112.939px;">G<tspan x="783.048px 867.135px 938.649px 1003.99px 1069.32px 1134.66px 1200px 1265.34px 1330.67px 1396.01px 1461.35px 1526.68px 1592.02px 1625.92px 1691.26px 1756.6px 1834.45px 1899.79px 1958.79px 1992.69px 2058.03px 2098.16px 2125.78px 2191.12px 2256.46px 2334.31px 2399.65px 2458.64px 2486.26px 2513.88px 2541.5px 2606.83px 2640.74px 2706.08px 2771.41px 2849.27px 2914.61px 2973.6px 3001.22px 3028.84px 3056.45px 3084.07px 3149.41px 3227.26px 3292.6px 3351.6px 3379.21px 3406.83px 3434.45px 3499.78px 3558.78px 3624.12px 3683.11px 3748.45px 3813.79px 3879.12px 3944.46px 4041.07px 4112.58px 4196.67px 4255.66px 4283.28px 4348.62px 4413.95px 4479.29px 4544.63px 4609.97px 4675.3px 4771.91px 4843.42px 4927.51px 4986.51px 5014.12px 5079.46px 5113.36px " y="4190.77px 4190.77px 4190.77px 4190.77px 4190.77px 4190.77px 4190.77px 4190.77px 4190.77px 4190.77px 4190.77px 4190.77px 4190.77px 4190.77px 4190.77px 4190.77px 4190.77px 4190.77px 4190.77px 4190.77px 4190.77px 4190.77px 4190.77px 4190.77px 4190.77px 4190.77px 4190.77px 4190.77px 4190.77px 4190.77px 4190.77px 4190.77px 4190.77px 4190.77px 4190.77px 4190.77px 4190.77px 4190.77px 4190.77px 4190.77px 4190.77px 4190.77px 4190.77px 4190.77px 4190.77px 4190.77px 4190.77px 4190.77px 4190.77px 4190.77px 4190.77px 4190.77px 4190.77px 4190.77px 4190.77px 4190.77px 4190.77px 4190.77px 4190.77px 4190.77px 4190.77px 4190.77px 4190.77px 4190.77px 4190.77px 4190.77px 4190.77px 4190.77px 4190.77px 4190.77px 4190.77px 4190.77px 4190.77px 4190.77px 4190.77px ">CF_000374965.1_Bacteria_Bacillota_Bacilli_Bacillus_sp_95MFCvi2_1_95MFCvi2.1</tspan></text><text x="692.675px" y="4651.94px" style="font-family:'Helvetica';font-size:112.939px;">G<tspan x="783.854px 868.747px 941.067px 1007.21px 1073.35px 1139.5px 1205.64px 1271.78px 1337.93px 1404.07px 1470.21px 1536.36px 1602.5px 1637.21px 1703.35px 1769.5px 1848.16px 1914.3px 1974.1px 2008.81px 2074.96px 2115.9px 2144.32px 2210.46px 2276.61px 2355.27px 2421.41px 2481.21px 2509.64px 2538.06px 2566.48px 2632.63px 2667.34px 2733.48px 2799.62px 2878.28px 2944.43px 3004.23px 3032.65px 3061.08px 3089.5px 3117.92px 3184.07px 3262.73px 3328.87px 3388.67px 3417.1px 3445.52px 3473.94px 3540.09px 3599.89px 3666.03px 3732.17px 3791.98px 3858.12px 3924.26px 3990.41px 4056.55px 4153.96px 4213.76px 4273.56px 4339.71px 4368.13px 4434.27px 4500.42px 4560.22px 4626.36px 4692.5px 4758.65px 4824.79px 4890.93px 4957.08px " y="4651.94px 4651.94px 4651.94px 4651.94px 4651.94px 4651.94px 4651.94px 4651.94px 4651.94px 4651.94px 4651.94px 4651.94px 4651.94px 4651.94px 4651.94px 4651.94px 4651.94px 4651.94px 4651.94px 4651.94px 4651.94px 4651.94px 4651.94px 4651.94px 4651.94px 4651.94px 4651.94px 4651.94px 4651.94px 4651.94px 4651.94px 4651.94px 4651.94px 4651.94px 4651.94px 4651.94px 4651.94px 4651.94px 4651.94px 4651.94px 4651.94px 4651.94px 4651.94px 4651.94px 4651.94px 4651.94px 4651.94px 4651.94px 4651.94px 4651.94px 4651.94px 4651.94px 4651.94px 4651.94px 4651.94px 4651.94px 4651.94px 4651.94px 4651.94px 4651.94px 4651.94px 4651.94px 4651.94px 4651.94px 4651.94px 4651.94px 4651.94px 4651.94px 4651.94px 4651.94px 4651.94px 4651.94px ">CF_000742855.1_Bacteria_Bacillota_Bacilli_Bacillus_pseudomycoides_219298</tspan></text><text x="4037.08px" y="2807.27px" style="font-family:'Helvetica';font-size:112.939px;">G<tspan x="4128.13px 4212.9px 4285.09px 4351.1px 4417.11px 4483.13px 4549.14px 4615.15px 4681.17px 4747.18px 4813.19px 4879.21px 4945.22px 4979.8px 5045.82px 5111.83px 5190.36px 5256.37px 5316.05px 5350.63px 5416.64px 5457.45px 5485.75px 5551.76px 5617.77px 5696.31px 5762.32px 5821.99px 5850.28px 5878.58px 5906.87px 5972.89px 6007.47px 6073.48px 6139.49px 6218.02px 6284.04px 6343.71px 6372px 6400.3px 6428.59px 6456.89px 6522.9px 6601.43px 6667.44px 6727.12px 6755.41px 6783.7px 6812px 6878.01px 6937.68px 7003.7px 7069.71px 7098px 7164.02px 7230.03px 7327.31px 7393.32px 7453px 7519.01px 7585.02px 7651.04px 7717.05px 7783.07px 7842.74px 7871.03px 7930.7px 7996.72px 8068.91px 8128.58px 8207.11px 8279.3px 8320.11px 8386.12px 8452.14px 8518.15px 8584.17px " y="2807.27px 2807.27px 2807.27px 2807.27px 2807.27px 2807.27px 2807.27px 2807.27px 2807.27px 2807.27px 2807.27px 2807.27px 2807.27px 2807.27px 2807.27px 2807.27px 2807.27px 2807.27px 2807.27px 2807.27px 2807.27px 2807.27px 2807.27px 2807.27px 2807.27px 2807.27px 2807.27px 2807.27px 2807.27px 2807.27px 2807.27px 2807.27px 2807.27px 2807.27px 2807.27px 2807.27px 2807.27px 2807.27px 2807.27px 2807.27px 2807.27px 2807.27px 2807.27px 2807.27px 2807.27px 2807.27px 2807.27px 2807.27px 2807.27px 2807.27px 2807.27px 2807.27px 2807.27px 2807.27px 2807.27px 2807.27px 2807.27px 2807.27px 2807.27px 2807.27px 2807.27px 2807.27px 2807.27px 2807.27px 2807.27px 2807.27px 2807.27px 2807.27px 2807.27px 2807.27px 2807.27px 2807.27px 2807.27px 2807.27px 2807.27px 2807.27px 2807.27px ">CF_000299035.1_Bacteria_Bacillota_Bacilli_Bacillus_bingmayongensis_FJAT-13831</tspan></text><text x="573.618px" y="6957.78px" style="font-family:'Helvetica';font-size:112.939px;">G<tspan x="663.957px 748.01px 819.489px 884.792px 950.094px 1015.4px 1080.7px 1146px 1211.31px 1276.61px 1341.91px 1407.21px 1472.52px 1506.39px 1571.69px 1636.99px 1714.81px 1780.12px 1839.08px 1872.95px 1938.25px 1978.35px 2005.93px 2071.24px 2136.54px 2214.36px 2279.66px 2338.62px 2366.21px 2393.79px 2421.37px 2486.68px 2520.55px 2585.85px 2651.15px 2728.97px 2794.27px 2853.24px 2880.82px 2908.4px 2935.98px 2963.57px 3028.87px 3106.69px 3171.99px 3230.95px 3258.54px 3286.12px 3313.7px 3379.01px 3437.97px 3503.27px 3562.23px 3627.53px 3692.84px 3758.14px 3823.44px 3888.74px 3985.32px 4056.8px 4122.1px 4187.4px 4252.7px 4318.01px 4414.58px " y="6957.78px 6957.78px 6957.78px 6957.78px 6957.78px 6957.78px 6957.78px 6957.78px 6957.78px 6957.78px 6957.78px 6957.78px 6957.78px 6957.78px 6957.78px 6957.78px 6957.78px 6957.78px 6957.78px 6957.78px 6957.78px 6957.78px 6957.78px 6957.78px 6957.78px 6957.78px 6957.78px 6957.78px 6957.78px 6957.78px 6957.78px 6957.78px 6957.78px 6957.78px 6957.78px 6957.78px 6957.78px 6957.78px 6957.78px 6957.78px 6957.78px 6957.78px 6957.78px 6957.78px 6957.78px 6957.78px 6957.78px 6957.78px 6957.78px 6957.78px 6957.78px 6957.78px 6957.78px 6957.78px 6957.78px 6957.78px 6957.78px 6957.78px 6957.78px 6957.78px 6957.78px 6957.78px 6957.78px 6957.78px 6957.78px ">CF_000374885.1_Bacteria_Bacillota_Bacilli_Bacillus_sp_105MF_105MF</tspan></text><text x="692.675px" y="5113.11px" style="font-family:'Helvetica';font-size:112.939px;">G<tspan x="783.125px 867.289px 938.879px 1004.29px 1069.71px 1135.12px 1200.54px 1265.95px 1331.36px 1396.78px 1462.19px 1527.61px 1593.02px 1627px 1692.42px 1757.83px 1835.76px 1901.18px 1960.25px 1994.23px 2059.64px 2099.86px 2127.55px 2192.97px 2258.38px 2336.31px 2401.72px 2460.8px 2488.49px 2516.19px 2543.88px 2609.3px 2643.28px 2708.69px 2774.1px 2852.04px 2917.45px 2976.52px 3004.22px 3031.91px 3059.61px 3087.3px 3152.71px 3230.65px 3296.06px 3355.13px 3382.83px 3410.52px 3438.22px 3503.63px 3562.7px 3628.12px 3693.53px 3752.6px 3818.02px 3883.43px 3948.85px 4014.26px 4110.94px 4170.01px 4229.09px 4294.5px 4322.19px 4387.61px 4453.02px 4512.1px 4577.51px 4655.44px 4727.03px " y="5113.11px 5113.11px 5113.11px 5113.11px 5113.11px 5113.11px 5113.11px 5113.11px 5113.11px 5113.11px 5113.11px 5113.11px 5113.11px 5113.11px 5113.11px 5113.11px 5113.11px 5113.11px 5113.11px 5113.11px 5113.11px 5113.11px 5113.11px 5113.11px 5113.11px 5113.11px 5113.11px 5113.11px 5113.11px 5113.11px 5113.11px 5113.11px 5113.11px 5113.11px 5113.11px 5113.11px 5113.11px 5113.11px 5113.11px 5113.11px 5113.11px 5113.11px 5113.11px 5113.11px 5113.11px 5113.11px 5113.11px 5113.11px 5113.11px 5113.11px 5113.11px 5113.11px 5113.11px 5113.11px 5113.11px 5113.11px 5113.11px 5113.11px 5113.11px 5113.11px 5113.11px 5113.11px 5113.11px 5113.11px 5113.11px 5113.11px 5113.11px 5113.11px 5113.11px ">CF_000832885.1_Bacteria_Bacillota_Bacilli_Bacillus_pseudomycoides_BTZ</tspan></text><text x="8355.59px" y="1884.93px" style="font-family:'Helvetica';font-size:112.939px;">G<tspan x="8446.27px 8530.67px 8602.5px 8668.15px 8733.79px 8799.44px 8865.09px 8930.74px 8996.39px 9062.03px 9127.68px 9193.33px 9258.98px 9293.19px 9358.84px 9424.49px 9502.66px 9568.31px 9627.61px 9661.83px 9727.48px 9767.92px 9795.85px 9861.5px 9927.15px 10005.3px 10071px 10130.3px 10158.2px 10186.1px 10214.1px 10279.7px 10313.9px 10379.6px 10445.2px 10523.4px 10589px 10648.3px 10676.3px 10704.2px 10732.1px 10760px 10825.7px 10903.9px 10969.5px 11028.8px 11056.7px 11084.7px 11112.6px 11178.2px 11237.6px 11303.2px 11400.1px 11459.4px 11518.7px 11584.4px 11612.3px 11678px 11743.6px 11802.9px 11868.6px 11946.7px 12031.1px 12128px 12193.7px 12259.3px " y="1884.93px 1884.93px 1884.93px 1884.93px 1884.93px 1884.93px 1884.93px 1884.93px 1884.93px 1884.93px 1884.93px 1884.93px 1884.93px 1884.93px 1884.93px 1884.93px 1884.93px 1884.93px 1884.93px 1884.93px 1884.93px 1884.93px 1884.93px 1884.93px 1884.93px 1884.93px 1884.93px 1884.93px 1884.93px 1884.93px 1884.93px 1884.93px 1884.93px 1884.93px 1884.93px 1884.93px 1884.93px 1884.93px 1884.93px 1884.93px 1884.93px 1884.93px 1884.93px 1884.93px 1884.93px 1884.93px 1884.93px 1884.93px 1884.93px 1884.93px 1884.93px 1884.93px 1884.93px 1884.93px 1884.93px 1884.93px 1884.93px 1884.93px 1884.93px 1884.93px 1884.93px 1884.93px 1884.93px 1884.93px 1884.93px 1884.93px ">CF_000290695.1_Bacteria_Bacillota_Bacilli_Bacillus_mycoides_VDM022</tspan></text><text x="704.91px" y="6035.44px" style="font-family:'Helvetica';font-size:112.939px;">G<tspan x="795.726px 880.256px 952.212px 1017.99px 1083.77px 1149.55px 1215.33px 1281.11px 1346.89px 1412.67px 1478.45px 1544.23px 1610.01px 1644.36px 1710.14px 1775.92px 1854.22px 1920px 1979.44px 2013.78px 2079.56px 2120.14px 2148.2px 2213.98px 2279.76px 2358.06px 2423.84px 2483.28px 2511.34px 2539.4px 2567.46px 2633.24px 2667.59px 2733.37px 2799.15px 2877.45px 2943.23px 3002.66px 3030.72px 3058.78px 3086.85px 3114.91px 3180.69px 3258.98px 3324.76px 3384.2px 3412.26px 3440.32px 3468.38px 3534.16px 3593.6px 3659.38px 3725.16px 3784.6px 3850.38px 3916.16px 3981.94px 4047.72px 4144.77px 4204.21px 4263.65px 4329.43px 4357.49px 4423.27px 4489.05px 4548.48px 4614.26px 4686.22px 4764.52px 4830.3px 4896.08px 4980.61px 5046.39px 5086.97px 5152.75px 5218.53px 5284.31px " y="6035.44px 6035.44px 6035.44px 6035.44px 6035.44px 6035.44px 6035.44px 6035.44px 6035.44px 6035.44px 6035.44px 6035.44px 6035.44px 6035.44px 6035.44px 6035.44px 6035.44px 6035.44px 6035.44px 6035.44px 6035.44px 6035.44px 6035.44px 6035.44px 6035.44px 6035.44px 6035.44px 6035.44px 6035.44px 6035.44px 6035.44px 6035.44px 6035.44px 6035.44px 6035.44px 6035.44px 6035.44px 6035.44px 6035.44px 6035.44px 6035.44px 6035.44px 6035.44px 6035.44px 6035.44px 6035.44px 6035.44px 6035.44px 6035.44px 6035.44px 6035.44px 6035.44px 6035.44px 6035.44px 6035.44px 6035.44px 6035.44px 6035.44px 6035.44px 6035.44px 6035.44px 6035.44px 6035.44px 6035.44px 6035.44px 6035.44px 6035.44px 6035.44px 6035.44px 6035.44px 6035.44px 6035.44px 6035.44px 6035.44px 6035.44px 6035.44px 6035.44px ">CF_002014615.1_Bacteria_Bacillota_Bacilli_Bacillus_pseudomycoides_FSL_H8-0534</tspan></text><text x="664.65px" y="6528.06px" style="font-family:'Helvetica-Bold', 'Helvetica';font-weight:700;font-size:215.149px;">S<tspan x="796.134px 927.619px 1082.95px 1226.31px 1357.79px 1501.15px 1644.5px 1775.99px 1919.34px 2026.98px 2182.31px 2313.8px 2457.15px 2612.48px 2779.68px " y="6528.06px 6528.06px 6528.06px 6528.06px 6528.06px 6528.06px 6528.06px 6528.06px 6528.06px 6528.06px 6528.06px 6528.06px 6528.06px 6528.06px 6528.06px ">EQUENCED_GENOME</tspan></text><text x="5691.36px" y="962.597px" style="font-family:'Helvetica';font-size:112.939px;">G<tspan x="5781.77px 5865.9px 5937.45px 6002.83px 6068.21px 6133.59px 6198.97px 6264.34px 6329.72px 6395.1px 6460.48px 6525.86px 6591.24px 6625.18px 6690.56px 6755.94px 6833.83px 6899.21px 6958.25px 6992.19px 7057.57px 7097.75px 7125.4px 7190.78px 7256.16px 7334.06px 7399.44px 7458.47px 7486.13px 7513.79px 7541.45px 7606.82px 7640.77px 7706.15px 7771.53px 7849.42px 7914.8px 7973.84px 8001.49px 8029.15px 8056.81px 8084.47px 8149.85px 8227.74px 8293.12px 8352.16px 8379.82px 8407.48px 8435.13px 8500.51px 8559.55px 8624.93px 8690.3px 8755.68px 8821.06px 8917.71px 8983.08px 9042.12px 9107.5px 9172.88px 9231.91px 9259.57px 9318.61px 9383.99px 9443.02px 9527.15px 9623.8px 9689.17px 9754.55px 9819.93px 9885.31px 9950.69px " y="962.597px 962.597px 962.597px 962.597px 962.597px 962.597px 962.597px 962.597px 962.597px 962.597px 962.597px 962.597px 962.597px 962.597px 962.597px 962.597px 962.597px 962.597px 962.597px 962.597px 962.597px 962.597px 962.597px 962.597px 962.597px 962.597px 962.597px 962.597px 962.597px 962.597px 962.597px 962.597px 962.597px 962.597px 962.597px 962.597px 962.597px 962.597px 962.597px 962.597px 962.597px 962.597px 962.597px 962.597px 962.597px 962.597px 962.597px 962.597px 962.597px 962.597px 962.597px 962.597px 962.597px 962.597px 962.597px 962.597px 962.597px 962.597px 962.597px 962.597px 962.597px 962.597px 962.597px 962.597px 962.597px 962.597px 962.597px 962.597px 962.597px 962.597px 962.597px 962.597px ">CF_000712615.1_Bacteria_Bacillota_Bacilli_Bacillus_gaemokensis_JCM_15801</tspan></text><text x="4943.7px" y="3268.44px" style="font-family:'Helvetica';font-size:112.939px;">G<tspan x="5033.88px 5117.77px 5189.09px 5254.23px 5319.37px 5384.52px 5449.66px 5514.8px 5579.94px 5645.09px 5710.23px 5775.37px 5840.51px 5874.22px 5939.36px 6004.51px 6082.16px 6147.31px 6206.11px 6239.82px 6304.96px 6344.9px 6372.32px 6437.46px 6502.61px 6580.27px 6645.41px 6704.21px 6731.63px 6759.05px 6786.48px 6851.62px 6885.33px 6950.47px 7015.61px 7093.27px 7158.41px 7217.22px 7244.64px 7272.06px 7299.48px 7326.9px 7392.05px 7469.71px 7534.85px 7593.65px 7621.07px 7648.49px 7675.92px 7741.06px 7799.86px 7865px 7923.8px 7988.94px 8054.09px 8137.98px 8221.87px 8305.76px 8370.9px 8436.05px 8501.19px 8585.08px 8650.22px 8715.36px 8780.51px 8864.4px 8923.2px 8950.62px 9028.28px 9093.42px 9158.57px 9223.71px 9307.6px 9391.49px 9475.38px 9540.52px 9605.67px 9670.81px 9754.7px 9819.84px 9884.99px 9950.13px 10034px 10092.8px 10120.2px 10197.9px 10263px " y="3268.44px 3268.44px 3268.44px 3268.44px 3268.44px 3268.44px 3268.44px 3268.44px 3268.44px 3268.44px 3268.44px 3268.44px 3268.44px 3268.44px 3268.44px 3268.44px 3268.44px 3268.44px 3268.44px 3268.44px 3268.44px 3268.44px 3268.44px 3268.44px 3268.44px 3268.44px 3268.44px 3268.44px 3268.44px 3268.44px 3268.44px 3268.44px 3268.44px 3268.44px 3268.44px 3268.44px 3268.44px 3268.44px 3268.44px 3268.44px 3268.44px 3268.44px 3268.44px 3268.44px 3268.44px 3268.44px 3268.44px 3268.44px 3268.44px 3268.44px 3268.44px 3268.44px 3268.44px 3268.44px 3268.44px 3268.44px 3268.44px 3268.44px 3268.44px 3268.44px 3268.44px 3268.44px 3268.44px 3268.44px 3268.44px 3268.44px 3268.44px 3268.44px 3268.44px 3268.44px 3268.44px 3268.44px 3268.44px 3268.44px 3268.44px 3268.44px 3268.44px 3268.44px 3268.44px 3268.44px 3268.44px 3268.44px 3268.44px 3268.44px 3268.44px 3268.44px 3268.44px ">CF_000482345.1_Bacteria_Bacillota_Bacilli_Bacillus_sp_UNC437CL72CviS29_UNC437CL72CviS29</tspan></text><text x="5691.36px" y="1423.77px" style="font-family:'Helvetica';font-size:112.939px;">G<tspan x="5781.95px 5866.26px 5937.99px 6003.54px 6069.1px 6134.65px 6200.21px 6265.77px 6331.32px 6396.88px 6462.44px 6527.99px 6593.55px 6627.67px 6693.23px 6758.78px 6836.86px 6902.41px 6961.63px 6995.75px 7061.31px 7101.66px 7129.49px 7195.05px 7260.61px 7338.68px 7404.24px 7463.45px 7491.29px 7519.12px 7546.96px 7612.52px 7646.64px 7712.19px 7777.75px 7855.82px 7921.38px 7980.6px 8008.43px 8036.27px 8064.1px 8091.94px 8157.49px 8235.57px 8301.13px 8360.34px 8388.18px 8416.01px 8443.85px 8509.4px 8568.62px 8634.17px 8699.73px 8765.29px 8830.84px 8927.67px 8993.22px 9052.44px 9117.99px 9183.55px 9242.76px 9270.6px 9329.81px 9395.37px 9473.44px 9557.75px 9629.48px 9713.79px 9779.34px 9844.9px 9910.45px 9976.01px 10041.6px " y="1423.77px 1423.77px 1423.77px 1423.77px 1423.77px 1423.77px 1423.77px 1423.77px 1423.77px 1423.77px 1423.77px 1423.77px 1423.77px 1423.77px 1423.77px 1423.77px 1423.77px 1423.77px 1423.77px 1423.77px 1423.77px 1423.77px 1423.77px 1423.77px 1423.77px 1423.77px 1423.77px 1423.77px 1423.77px 1423.77px 1423.77px 1423.77px 1423.77px 1423.77px 1423.77px 1423.77px 1423.77px 1423.77px 1423.77px 1423.77px 1423.77px 1423.77px 1423.77px 1423.77px 1423.77px 1423.77px 1423.77px 1423.77px 1423.77px 1423.77px 1423.77px 1423.77px 1423.77px 1423.77px 1423.77px 1423.77px 1423.77px 1423.77px 1423.77px 1423.77px 1423.77px 1423.77px 1423.77px 1423.77px 1423.77px 1423.77px 1423.77px 1423.77px 1423.77px 1423.77px 1423.77px 1423.77px 1423.77px ">CF_001590835.1_Bacteria_Bacillota_Bacilli_Bacillus_gaemokensis_KCTC_13318</tspan></text><text x="1842.68px" y="3729.6px" style="font-family:'Helvetica';font-size:112.939px;">G<tspan x="1932.75px 2016.54px 2087.76px 2152.8px 2217.84px 2282.88px 2347.92px 2412.96px 2478px 2543.04px 2608.08px 2673.12px 2738.16px 2771.77px 2836.81px 2901.85px 2979.41px 3044.45px 3103.15px 3136.75px 3201.79px 3241.63px 3268.95px 3333.99px 3399.03px 3476.59px 3541.63px 3600.33px 3627.65px 3654.97px 3682.29px 3747.33px 3780.94px 3845.98px 3911.02px 3988.58px 4053.62px 4112.32px 4139.64px 4166.96px 4194.28px 4221.6px 4286.64px 4364.2px 4429.24px 4487.94px 4515.26px 4542.57px 4569.9px 4634.94px 4693.63px 4758.68px 4854.98px 4913.68px 4972.38px 5037.42px 5064.74px 5129.78px 5194.82px 5253.52px 5318.56px 5396.12px 5473.68px " y="3729.6px 3729.6px 3729.6px 3729.6px 3729.6px 3729.6px 3729.6px 3729.6px 3729.6px 3729.6px 3729.6px 3729.6px 3729.6px 3729.6px 3729.6px 3729.6px 3729.6px 3729.6px 3729.6px 3729.6px 3729.6px 3729.6px 3729.6px 3729.6px 3729.6px 3729.6px 3729.6px 3729.6px 3729.6px 3729.6px 3729.6px 3729.6px 3729.6px 3729.6px 3729.6px 3729.6px 3729.6px 3729.6px 3729.6px 3729.6px 3729.6px 3729.6px 3729.6px 3729.6px 3729.6px 3729.6px 3729.6px 3729.6px 3729.6px 3729.6px 3729.6px 3729.6px 3729.6px 3729.6px 3729.6px 3729.6px 3729.6px 3729.6px 3729.6px 3729.6px 3729.6px 3729.6px 3729.6px ">CF_002001145.1_Bacteria_Bacillota_Bacilli_Bacillus_mycoides_SB4</tspan></text><text x="464.444px" y="7880.11px" style="font-family:'Helvetica';font-size:112.939px;">G<tspan x="555.454px 640.177px 712.328px 778.302px 844.276px 910.25px 976.223px 1042.2px 1108.17px 1174.14px 1240.12px 1306.09px 1372.07px 1406.61px 1472.58px 1538.56px 1617.05px 1683.02px 1742.65px 1777.19px 1843.17px 1883.94px 1912.19px 1978.17px 2044.14px 2122.64px 2188.61px 2248.24px 2276.49px 2304.75px 2333px 2398.98px 2433.52px 2499.49px 2565.47px 2643.96px 2709.93px 2769.56px 2797.82px 2826.07px 2854.33px 2882.58px 2948.55px 3027.05px 3093.02px 3152.65px 3180.91px 3209.16px 3237.41px 3303.39px 3363.02px 3428.99px 3494.97px 3554.6px 3620.58px 3686.55px 3752.52px 3818.5px 3915.74px 3975.37px 4035px 4100.98px 4129.23px 4195.2px 4261.18px 4320.81px 4386.78px 4458.94px 4487.19px 4553.16px 4619.14px 4685.11px 4751.09px 4817.06px 4883.03px 4949.01px 5014.98px 5080.95px " y="7880.11px 7880.11px 7880.11px 7880.11px 7880.11px 7880.11px 7880.11px 7880.11px 7880.11px 7880.11px 7880.11px 7880.11px 7880.11px 7880.11px 7880.11px 7880.11px 7880.11px 7880.11px 7880.11px 7880.11px 7880.11px 7880.11px 7880.11px 7880.11px 7880.11px 7880.11px 7880.11px 7880.11px 7880.11px 7880.11px 7880.11px 7880.11px 7880.11px 7880.11px 7880.11px 7880.11px 7880.11px 7880.11px 7880.11px 7880.11px 7880.11px 7880.11px 7880.11px 7880.11px 7880.11px 7880.11px 7880.11px 7880.11px 7880.11px 7880.11px 7880.11px 7880.11px 7880.11px 7880.11px 7880.11px 7880.11px 7880.11px 7880.11px 7880.11px 7880.11px 7880.11px 7880.11px 7880.11px 7880.11px 7880.11px 7880.11px 7880.11px 7880.11px 7880.11px 7880.11px 7880.11px 7880.11px 7880.11px 7880.11px 7880.11px 7880.11px 7880.11px 7880.11px ">CF_000746965.1_Bacteria_Bacillota_Bacilli_Bacillus_pseudomycoides_Flugge_10206</tspan></text><text x="416.068px" y="8341.28px" style="font-family:'Helvetica';font-size:112.939px;">G<tspan x="507.211px 592.067px 664.35px 730.457px 796.564px 862.67px 928.777px 994.884px 1060.99px 1127.1px 1193.2px 1259.31px 1325.42px 1360.09px 1426.2px 1492.3px 1570.93px 1637.04px 1696.8px 1731.47px 1797.58px 1838.49px 1866.87px 1932.98px 1999.09px 2077.71px 2143.82px 2203.58px 2231.97px 2260.36px 2288.74px 2354.85px 2389.52px 2455.63px 2521.74px 2600.36px 2666.47px 2726.23px 2754.62px 2783.01px 2811.39px 2839.78px 2905.89px 2984.51px 3050.62px 3110.38px 3138.77px 3167.16px 3195.54px 3261.65px 3321.41px 3387.52px 3453.63px 3513.39px 3579.5px 3645.61px 3711.71px 3777.82px 3875.2px 3934.96px 3994.72px 4060.83px 4089.22px 4155.32px 4221.43px 4281.2px 4347.3px 4432.16px 4498.27px 4558.03px 4617.8px 4683.9px 4724.81px " y="8341.28px 8341.28px 8341.28px 8341.28px 8341.28px 8341.28px 8341.28px 8341.28px 8341.28px 8341.28px 8341.28px 8341.28px 8341.28px 8341.28px 8341.28px 8341.28px 8341.28px 8341.28px 8341.28px 8341.28px 8341.28px 8341.28px 8341.28px 8341.28px 8341.28px 8341.28px 8341.28px 8341.28px 8341.28px 8341.28px 8341.28px 8341.28px 8341.28px 8341.28px 8341.28px 8341.28px 8341.28px 8341.28px 8341.28px 8341.28px 8341.28px 8341.28px 8341.28px 8341.28px 8341.28px 8341.28px 8341.28px 8341.28px 8341.28px 8341.28px 8341.28px 8341.28px 8341.28px 8341.28px 8341.28px 8341.28px 8341.28px 8341.28px 8341.28px 8341.28px 8341.28px 8341.28px 8341.28px 8341.28px 8341.28px 8341.28px 8341.28px 8341.28px 8341.28px 8341.28px 8341.28px 8341.28px 8341.28px ">CF_000161415.1_Bacteria_Bacillota_Bacilli_Bacillus_pseudomycoides_Rock1-4</tspan></text></g></g><g id="_04-phylogenetic_tree.tre.pdf1" serif:id="04-phylogenetic_tree.tre.pdf"></g></svg>